{"title":"Iron Man 3 2013 TS READNFO XViD - VAiN","uid":8478660,"size":1823447746,"categoryP":"video","categoryS":"movies","magnet":"?xt=urn:btih:68a90315dd256e405707f1ce610e1b37d1841e44&amp;dn=Iron+Man+3+2013+TS+READNFO+XViD+-+VAiN&amp;tr=udp%3A%2F%2Ftracker.openbittorrent.com%3A80&amp;tr=udp%3A%2F%2Fopen.demonii.com%3A1337&amp;tr=udp%3A%2F%2Ftracker.coppersurfer.tk%3A6969&amp;tr=udp%3A%2F%2Fexodus.desync.com%3A6969","seeders":1,"leechers":0,"uploader":"R0thschild","files":5,"time":1368677166,"description":"              ***********************************************\n\n                PublicHash - Largest Bittorrent Community\n      \n                         &lt;a href=&quot; http://publichash.com/&quot; rel=&quot;nofollow&quot; target=&quot;_NEW&quot;&gt; http://publichash.com/&lt;/a&gt;\n    \n              ***********************************************\n\nIron Man 3 2013 TS READNFO XViD - VAiN\n\nT E C H N i C A L . i N F O . . .      \nGeneral\nComplete name                            : Iron Man 3 2013 TS READNFO XViD - VAiNIron Man 3 2013 TS READNFO XViD - VAiN.avi\nFormat                                   : AVI\nFormat/Info                              : Audio Video Interleave\nFile size                                : 1.60 GiB\nDuration                                 : 2h 9mn\nOverall bit rate                         : 1 769 Kbps\nWriting application                      : VirtualDubMod 1.5.10.2 (build 2540/release)\nWriting library                          : VirtualDubMod build 2540/release\n\nVideo\nID                                       : 0\nFormat                                   : MPEG-4 Visual\nFormat profile                           : Advanced Simple@L5\nFormat settings, BVOP                    : 2\nFormat settings, QPel                    : No\nFormat settings, GMC                     : No warppoints\nFormat settings, Matrix                  : Default (MPEG)\nMuxing mode                              : Packed bitstream\nCodec ID                                 : XVID\nCodec ID/Hint                            : XviD\nDuration                                 : 2h 9mn\nBit rate                                 : 1 394 Kbps\nWidth                                    : 720 pixels\nHeight                                   : 304 pixels\nDisplay aspect ratio                     : 2.35:1\nOriginal display aspect ratio            : 2.35:1\nFrame rate                               : 29.970 fps\nColor space                              : YUV\nChroma subsampling                       : 4:2:0\nBit depth                                : 8 bits\nScan type                                : Progressive\nCompression mode                         : Lossy\nBits/(Pixel*Frame)                       : 0.213\nStream size                              : 1.26 GiB (79%)\nWriting library                          : XviD 64\n\nAudio\nID                                       : 1\nFormat                                   : AC-3\nFormat/Info                              : Audio Coding 3\nMode extension                           : CM (complete main)\nFormat settings, Endianness              : Big\nCodec ID                                 : 2000\nDuration                                 : 2h 2mn\nBit rate mode                            : Constant\nBit rate                                 : 384 Kbps\nChannel(s)                               : 2 channels\nChannel positions                        : Front: L R\nSampling rate                            : 48.0 KHz\nBit depth                                : 16 bits\nCompression mode                         : Lossy\nStream size                              : 335 MiB (21%)\nAlignment                                : Split accross interleaves\nInterleave, duration                     : 35 ms (1.06 video frame)\nInterleave, preload duration             : 500 ms\n\nIMDB link: http://www.imdb.com/title/tt1300854/","torrent":{"xt":"urn:btih:68a90315dd256e405707f1ce610e1b37d1841e44","amp;dn":"Iron+Man+3+2013+TS+READNFO+XViD+-+VAiN","amp;tr":["udp%3A%2F%2Ftracker.openbittorrent.com%3A80","udp%3A%2F%2Fopen.demonii.com%3A1337","udp%3A%2F%2Ftracker.coppersurfer.tk%3A6969","udp%3A%2F%2Fexodus.desync.com%3A6969"],"infoHash":"68a90315dd256e405707f1ce610e1b37d1841e44","infoHashBuffer":{"type":"Buffer","data":[104,169,3,21,221,37,110,64,87,7,241,206,97,14,27,55,209,132,30,68]},"announce":[],"urlList":[]}}